# SSTK version 0.8.0
# 81
mtllib original-81.mtl
o DF_11_B3/DF_11_B/mesh23/mesh23-geometry#mesh23-geometry
v 0.361410 0.200165 0.345414
v -0.380053 0.200165 0.376965
v 0.361410 0.200165 0.376965
v -0.380053 0.200165 0.345414
v 0.361410 0.094993 0.376965
v -0.380053 0.094993 0.345414
v -0.380053 0.094993 0.376965
v 0.361410 0.094993 0.345414
vt -1.535065 0.458622
vt -1.261628 0.474247
vt -1.535065 0.474247
vt -1.261628 0.458622
vt -1.535065 0.526331
vt 1.559031 0.474247
vt 1.285593 0.526331
vt 1.285593 0.474247
vt -1.261628 0.526331
vt 1.559031 0.526331
vt -1.261628 0.541956
vt -1.535065 0.541956
vn 0 1 0
vn 0 0 1
vn 0 0 -1
vn 0 -1 0
usemtl material_0_0
f 1/1/1 2/2/1 3/3/1
f 2/2/1 1/1/1 4/4/1
f 2/2/2 5/5/2 3/3/2
f 1/6/3 6/7/3 4/8/3
f 5/5/2 2/2/2 7/9/2
f 6/7/3 1/6/3 8/10/3
f 6/11/4 5/5/4 7/9/4
f 5/5/4 6/11/4 8/12/4
usemtl material_1_0
f 3//4 2//4 1//4
f 4//4 1//4 2//4
f 3//3 5//3 2//3
f 4//2 6//2 1//2
f 7//3 2//3 5//3
f 8//2 1//2 6//2
f 7//1 5//1 6//1
f 8//1 6//1 5//1
