# SSTK version 0.8.0
# 102
mtllib original-102.mtl
o DF_11_R4/DF_11_R/mesh22/mesh22-geometry#mesh22-geometry
v 0.487617 0.079217 0.376965
v 0.361411 -0.167937 0.376965
v 0.487617 -0.167937 0.376965
v 0.361411 0.079217 0.376965
v 0.487617 -0.167937 0.345414
v 0.361411 0.079217 0.345414
v 0.361411 -0.167937 0.345414
v 0.487617 0.079217 0.345414
vt -1.787957 -0.843461
vt -1.725457 -0.715857
vt -1.787957 -0.715857
vt -1.725457 -0.843461
vt -1.787957 -0.700232
vt 1.431139 -0.715857
vt 1.446764 -0.843461
vt 1.446764 -0.715857
vt 1.431139 -0.859086
vt 1.368639 -0.843461
vt 1.368639 -0.859086
vt -1.709832 -0.843461
vt -1.725457 -0.700232
vt 1.431139 -0.843461
vt -1.709832 -0.715857
vt 1.368639 -0.715857
vn 0 0 1
vn 0 -1 0
vn 1 0 0
vn 0 1 0
vn -1 0 0
vn 0 0 -1
usemtl material_0_0
f 1/1/1 2/2/1 3/3/1
f 2/2/1 1/1/1 4/4/1
f 2/2/2 5/5/2 3/3/2
f 5/6/3 1/7/3 3/8/3
f 1/9/4 6/10/4 4/11/4
f 6/12/5 2/2/5 4/4/5
f 5/5/2 2/2/2 7/13/2
f 1/7/3 5/6/3 8/14/3
f 6/10/4 1/9/4 8/14/4
f 2/2/5 6/12/5 7/15/5
f 6/10/6 5/6/6 7/16/6
f 5/6/6 6/10/6 8/14/6
usemtl material_1_0
f 3//6 2//6 1//6
f 4//6 1//6 2//6
f 3//4 5//4 2//4
f 3//5 1//5 5//5
f 4//2 6//2 1//2
f 4//3 2//3 6//3
f 7//4 2//4 5//4
f 8//5 5//5 1//5
f 8//2 1//2 6//2
f 7//3 6//3 2//3
f 7//1 5//1 6//1
f 8//1 6//1 5//1
